<svg viewBox="0 0 50 55" preserveAspectRatio="xMidYMin meet" fill="none" xmlns="http://www.w3.org/2000/svg">
    <g class="svg_flag_new">
        <path class="svg_color" d="M0 55L25 43L50 55V0H0V55Z"></path>
        <path d="M9.27844 16.0967L14.6065 22.9849C15.1147 23.6375 15.4653 24 16.1663 24C16.8499 24 17.2354 23.6556 17.2354 23.0211V13.3414C17.2354 12.9245 17.2354 12.6163 17.0602 12.3807C16.8849 12.145 16.587 12 16.0962 12C15.6055 12 15.3075 12.145 15.1323 12.3807C14.957 12.6163 14.957 12.9245 14.957 13.3414V19.7764L9.83928 13.0514C9.36607 12.4169 9.01554 12 8.17427 12C7.38558 12 7 12.3444 7 12.9607V22.6042C7 23.0393 7 23.3474 7.17526 23.5831C7.35053 23.8187 7.64848 23.9637 8.13922 23.9637C8.62996 23.9637 8.92791 23.8187 9.10317 23.5831C9.27844 23.3474 9.27844 23.0211 9.27844 22.6042V16.0967Z" fill="white"></path>
        <path d="M22.2231 14.2477H25.0448C25.4129 14.2477 25.6933 14.2477 25.9212 14.0846C26.149 13.9215 26.2717 13.6495 26.2717 13.1964C26.2717 12.7251 26.149 12.4713 25.9212 12.3082C25.6933 12.145 25.4129 12.1269 25.0448 12.1269H21.0488C20.2426 12.1269 19.9271 12.435 19.9271 13.287V22.6949C19.9271 23.5287 20.2075 23.855 21.0488 23.855H25.4479C25.816 23.855 26.0964 23.855 26.3243 23.6918C26.5521 23.5287 26.6923 23.2568 26.6923 22.8036C26.6923 22.3323 26.5521 22.0786 26.3243 21.9154C26.0964 21.7523 25.816 21.7341 25.4479 21.7341H22.2231V18.7069H24.3788C24.7644 18.7069 25.0448 18.6888 25.2727 18.5257C25.5005 18.3625 25.6232 18.0906 25.6232 17.6375C25.6232 17.1843 25.5005 16.9305 25.2727 16.7674C25.0448 16.6042 24.7644 16.5861 24.3788 16.5861H22.2231V14.2477Z" fill="white"></path>
        <path d="M35.2884 16.0967L37.3915 22.6042C37.6544 23.4199 37.9524 24 38.9689 24C39.9153 24 40.1432 23.4743 40.4061 22.4955L42.8773 13.432C42.9299 13.2326 43 12.997 43 12.7795C43 12.3082 42.667 12 41.8257 12C40.9144 12 40.7391 12.3444 40.5463 13.1601L38.8462 20.3927L36.7255 13.6314C36.4802 12.852 36.2874 12.435 35.376 12.435C34.4471 12.435 34.2718 12.8882 34.0265 13.6495L31.9058 20.3927L30.2232 13.1601C30.0304 12.3625 29.7851 12 28.8737 12C27.9974 12 27.6994 12.3444 27.6994 12.7976C27.6994 13.0151 27.7695 13.2689 27.8221 13.4864L30.1882 22.4955C30.4335 23.4562 30.6789 24 31.6429 24C32.6068 24 32.8872 23.4562 33.1677 22.6042L35.2884 16.0967Z" fill="white"></path>
    </g>
    <defs>
        <style>
            .svg_flag_new .svg_color {
                fill: #4DD433
            }
        </style>
    </defs>
</svg>